<?xml version="1.0" encoding="utf-8"?>
<!-- Generator: Adobe Illustrator 23.0.2, SVG Export Plug-In . SVG Version: 6.00 Build 0)  -->
<svg version="1.1" id="Capa_1" xmlns="http://www.w3.org/2000/svg" xmlns:xlink="http://www.w3.org/1999/xlink" x="0px" y="0px"
	 width="69.51px" height="69.51px" viewBox="0 0 69.51 69.51" style="enable-background:new 0 0 82.77 69.51;" xml:space="preserve"
	>
<title>Recurso 1</title>
<g>
	<g id="Capa_1-2">
		<path style="fill:#F99D0C;" d="M21.79,4.26c0-1.97,1.6-3.57,3.57-3.57s3.57,1.6,3.57,3.57c0,0,0,0,0,0c0,1.97-1.6,3.57-3.57,3.57
			C23.39,7.83,21.79,6.23,21.79,4.26C21.79,4.26,21.79,4.26,21.79,4.26"/>
		<path style="fill:#F99D0C;" d="M20.42,47.7c0.03-2.73,2.27-4.91,5-4.88c2.73,0.03,4.91,2.27,4.88,5c-0.03,2.7-2.23,4.88-4.94,4.88
			C22.62,52.67,20.42,50.44,20.42,47.7"/>
		<path style="fill:#F99D0C;" d="M31.85,4.26c-0.11-2.32,1.67-4.29,3.99-4.4c2.32-0.11,4.29,1.67,4.4,3.99
			c0.01,0.14,0.01,0.27,0,0.41c0.11,2.32-1.67,4.29-3.99,4.4c-2.32,0.11-4.29-1.67-4.4-3.99C31.84,4.53,31.84,4.4,31.85,4.26"/>
		<path style="fill:#F99D0C;" d="M31.11,15.12c0.03-2.73,2.27-4.91,5-4.88c2.73,0.03,4.91,2.27,4.88,5
			c-0.03,2.71-2.24,4.89-4.95,4.88C33.31,20.08,31.11,17.85,31.11,15.12"/>
		<path style="fill:#F99D0C;" d="M31.85,36.84c0.04-2.32,1.95-4.17,4.27-4.13c2.32,0.04,4.17,1.95,4.13,4.27
			c-0.04,2.31-1.94,4.16-4.25,4.13c-2.34-0.02-4.21-1.93-4.19-4.27c0,0,0,0,0,0"/>
		<path style="fill:#F99D0C;" d="M32.48,47.7c0.03-1.97,1.66-3.54,3.63-3.51c1.97,0.03,3.54,1.66,3.51,3.63
			c-0.03,1.97-1.65,3.54-3.62,3.51c-1.98-0.02-3.58-1.64-3.56-3.62c0,0,0-0.01,0-0.01"/>
		<path style="fill:#F99D0C;" d="M43.16,15.12c0.03-1.97,1.66-3.54,3.63-3.51c1.97,0.03,3.54,1.66,3.51,3.63
			c-0.03,1.95-1.62,3.51-3.57,3.51C44.74,18.73,43.14,17.11,43.16,15.12C43.16,15.12,43.16,15.12,43.16,15.12"/>
		<path style="fill:#F99D0C;" d="M42.53,26c0.04-2.32,1.95-4.17,4.27-4.13s4.17,1.95,4.13,4.27c-0.04,2.29-1.91,4.13-4.2,4.13
			c-2.34-0.02-4.22-1.92-4.2-4.26C42.53,26.01,42.53,26,42.53,26"/>
		<path style="fill:#F99D0C;" d="M41.79,36.84c0.03-2.73,2.27-4.91,5-4.88c2.73,0.03,4.91,2.27,4.88,5
			c-0.03,2.7-2.23,4.88-4.94,4.88C43.99,41.81,41.79,39.58,41.79,36.84"/>
		<path style="fill:#F99D0C;" d="M52.48,26c0.03-2.73,2.27-4.91,5-4.88c2.73,0.03,4.91,2.27,4.88,5c-0.03,2.71-2.24,4.89-4.95,4.88
			C54.68,30.96,52.48,28.73,52.48,26"/>
	</g>
</g>
</svg>
