<svg xmlns="http://www.w3.org/2000/svg" width="116" height="43" viewBox="0 0 116 43" fill="none"><path d="M40.0781 1.54102H40.6149L41.1818 2.92415H41.2059L41.7729 1.54102H42.3096V3.59963H41.8875V2.25972H41.8704L41.3376 3.58958H41.0501L40.5174 2.2547H40.5003V3.59963H40.0781V1.54102Z" fill="#6F41E1"></path><path d="M38.1094 1.89987V1.54102H39.8001V1.89987H39.1698V3.59963H38.7396V1.89987H38.1094Z" fill="#6F41E1"></path><path fill-rule="evenodd" clip-rule="evenodd" d="M20.7568 1.14851C20.2312 1.61804 20.1523 1.79707 20.1523 2.51941C20.1523 3.26226 20.224 3.41229 20.8272 3.93365C21.405 4.43325 21.456 4.53197 21.1811 4.62095C20.7639 4.75558 20.0639 5.7907 20.0639 6.27261C20.0639 6.93656 20.3952 7.54726 20.9328 7.8742L21.4567 8.19282L20.8564 8.67172C19.7884 9.52408 19.8657 11.1174 21.0089 11.8126L21.5398 12.1355L21.0839 12.3432C19.8809 12.8913 19.7748 14.5762 20.8853 15.4915C21.4882 15.9885 21.4991 16.0173 21.1317 16.1339C20.6707 16.2804 20.0654 17.2145 20.0646 17.7813C20.0635 18.3679 20.5031 19.1313 21.0471 19.4878L21.5177 19.7962L20.9633 20.1334C19.8629 20.8024 19.8109 22.2353 20.8564 23.0696L21.4565 23.5483L20.8044 24.1121C20.2317 24.6073 20.1523 24.7734 20.1523 25.4779C20.1523 26.0833 20.2574 26.392 20.5811 26.7364C20.8171 26.9877 21.1338 27.1931 21.2849 27.1931C21.4507 27.1931 21.3005 27.4068 20.9068 27.7312C19.8086 28.6367 19.8385 30.2075 20.9673 30.8939L21.4567 31.1915L20.8564 31.6704C19.8004 32.513 19.8631 34.1505 20.9734 34.7248C21.5924 35.0448 21.5998 35.117 21.036 35.3314C20.7922 35.4241 20.4631 35.7715 20.3048 36.1034C19.8873 36.9791 20.0968 37.8402 20.8853 38.4902C21.4882 38.9871 21.4991 39.0159 21.1317 39.1325C20.657 39.2833 20.0654 40.2188 20.0646 40.8201C20.0639 41.282 20.4617 41.9806 20.9403 42.3576C21.7389 42.9869 26.6064 42.3614 29.4471 41.2643C32.8679 39.9433 34.2751 38.9993 37.2293 36.0442C39.8434 33.4294 41.7984 29.6835 42.6338 25.6893C43.005 23.9143 43.0551 19.9842 42.7294 18.1705C42.0084 14.1544 39.826 9.79547 37.2314 7.1899C33.2074 3.14851 28.6036 1.03157 23.1451 0.712599L21.3613 0.608398L20.7568 1.14851ZM17.4684 1.09526C16.0998 1.68013 16.2158 3.53577 17.6506 4.00919C18.7379 4.36814 19.7454 3.64316 19.7454 2.50189C19.7454 1.34152 18.5787 0.620782 17.4684 1.09526ZM13.372 1.59628C12.5553 2.4658 13.1666 3.84059 14.3697 3.84059C15.1252 3.84059 15.641 3.30207 15.641 2.51375C15.641 1.28527 14.2084 0.706054 13.372 1.59628ZM17.0427 5.24227C15.9821 6.30286 16.6105 7.90958 18.086 7.90958C19.1416 7.90958 19.71 7.37584 19.71 6.38459C19.71 4.83466 18.1279 4.15709 17.0427 5.24227ZM13.7507 5.07633C12.9199 5.41936 12.7186 6.711 13.3967 7.34806C14.2786 8.17637 15.641 7.61626 15.641 6.42546C15.641 5.38061 14.6783 4.69349 13.7507 5.07633ZM9.87369 5.39123C9.41672 5.6964 9.24865 6.30834 9.48572 6.80317C10.0191 7.91595 11.572 7.63767 11.572 6.42918C11.572 6.08455 11.4383 5.72046 11.2485 5.54868C10.9132 5.2451 10.2127 5.16496 9.87369 5.39123ZM6.02672 5.75638C5.44167 6.40264 5.76896 7.20193 6.61849 7.20193C7.21133 7.20193 7.50306 6.90065 7.50306 6.28818C7.50306 5.49366 6.56896 5.15717 6.02672 5.75638ZM17.6041 8.63722C16.4444 9.08906 16.1651 10.4069 17.0427 11.2845C17.7185 11.9603 18.6484 11.9948 19.2757 11.3673C19.8684 10.7749 19.8875 9.54761 19.312 9.02519C18.8125 8.57176 18.1553 8.42245 17.6041 8.63722ZM13.372 9.20352C12.8446 9.76504 12.8663 10.6353 13.4217 11.1904C13.9522 11.7212 14.5566 11.7445 15.1749 11.258C15.7697 10.7902 15.8282 9.68897 15.2872 9.14797C14.7945 8.65527 13.8618 8.68233 13.372 9.20352ZM9.79301 9.29728C9.33853 9.66526 9.24759 10.5495 9.61822 10.9962C9.91367 11.3521 10.9368 11.3502 11.2941 10.993C11.7169 10.57 11.6515 9.57751 11.1788 9.24651C10.6627 8.8849 10.2852 8.8987 9.79301 9.29728ZM5.94623 9.53718C5.42062 10.0628 5.90943 11.094 6.68413 11.094C7.20638 11.094 7.50306 10.7736 7.50306 10.2094C7.50306 9.95646 7.40753 9.65394 7.29076 9.53718C7.174 9.42041 6.87148 9.32488 6.61849 9.32488C6.36551 9.32488 6.06299 9.42041 5.94623 9.53718ZM17.4733 12.5079C16.4175 12.9339 16.204 14.3667 17.0751 15.1805C18.167 16.2006 19.6915 15.5577 19.7044 14.0718C19.7121 13.181 19.5729 12.8929 18.9896 12.5912C18.4317 12.3027 18.0357 12.2809 17.4733 12.5079ZM13.7465 12.778C13.1646 13.0229 12.9873 13.3351 12.9873 14.116C12.9873 14.8543 13.545 15.3399 14.3926 15.3399C15.2338 15.3399 15.641 14.8745 15.641 13.9126C15.641 12.887 14.7528 12.355 13.7465 12.778ZM9.76117 13.0843C9.4866 13.2962 9.38488 13.6714 9.42875 14.3101C9.48324 15.1036 10.72 15.4574 11.2793 14.8394C11.6679 14.4101 11.6517 13.5207 11.2485 13.1559C10.8649 12.8088 10.1617 12.775 9.76117 13.0843ZM6.02672 13.3636C5.64264 13.788 5.65521 14.3292 6.05751 14.6933C6.47803 15.0738 6.84689 15.0639 7.21027 14.6625C7.61168 14.219 7.58532 13.4503 7.16091 13.2232C6.66626 12.9585 6.35896 12.9965 6.02672 13.3636ZM58.3191 19.7082L58.3654 26.3969H59.0731C59.5095 26.3969 59.7892 26.3122 59.8028 26.1758C59.815 26.0543 59.8349 24.6927 59.8471 23.1502C59.8676 20.553 59.8985 20.3027 60.2672 19.761C61.0817 18.5641 62.4516 18.0552 63.5893 18.5265C64.5768 18.9355 64.7244 19.4857 64.8227 23.1241L64.9112 26.3969L65.6631 26.4513L66.4149 26.5058V23.1285C66.4149 19.6164 66.2975 18.9203 65.5682 18.1146C64.4553 16.8847 61.8485 16.7152 60.4893 17.7843C60.2193 17.9968 59.9493 18.1705 59.8895 18.1707C59.8297 18.1707 59.7807 17.0363 59.7807 15.6497V13.1285L59.0267 13.074L58.2727 13.0195L58.3191 19.7082ZM2.50528 13.408C2.33491 13.5073 2.19568 13.7818 2.19568 14.0185C2.19568 14.6011 3.02151 14.8401 3.37321 14.3591C3.67732 13.9432 3.67219 13.8342 3.33305 13.4949C3.01072 13.1727 2.92474 13.1637 2.50528 13.408ZM17.07 16.6825C16.328 17.3068 16.3174 18.1664 17.0427 18.8918C18.1168 19.9658 19.71 19.3236 19.71 17.8167C19.71 16.3501 18.2238 15.7116 17.07 16.6825ZM13.698 16.6289C12.7827 17.0921 12.7772 18.492 13.6888 18.9634C14.3759 19.3188 14.6188 19.3028 15.1749 18.8652C15.5345 18.5825 15.641 18.3426 15.641 17.8167C15.641 17.2907 15.5345 17.0508 15.1749 16.7681C14.6394 16.3467 14.3158 16.3163 13.698 16.6289ZM9.61822 17.03C9.27784 17.44 9.33534 18.3575 9.71871 18.6379C10.1819 18.9763 10.9339 18.9364 11.2793 18.5546C11.649 18.1459 11.6564 17.3956 11.2941 17.0331C10.9368 16.676 9.91367 16.674 9.61822 17.03ZM5.902 17.3024C5.43955 18.1668 6.26838 18.9956 7.13278 18.5332C7.54746 18.3112 7.64052 17.4942 7.29076 17.1444C6.94101 16.7947 6.12402 16.8877 5.902 17.3024ZM71.7303 17.1349C69.6096 17.5251 68.3238 19.1888 68.2911 21.5847C68.2699 23.1476 68.5874 24.3042 69.2631 25.1239C70.8201 27.0128 74.382 27.0774 76.036 25.2467C76.8086 24.3915 77.1028 23.4163 77.1031 21.7088C77.1036 19.4664 76.0845 17.828 74.376 17.324C73.4009 17.0363 72.5828 16.9779 71.7303 17.1349ZM82.6364 17.1964C82.1232 17.3273 81.5493 17.6426 81.1898 17.9911L80.5936 18.5687L80.5366 17.9717C80.4839 17.4213 80.4273 17.3702 79.8161 17.3196L79.1527 17.2645V23.7326V30.2006H79.8603H80.568V27.8227C80.568 26.4283 80.6412 25.3995 80.7449 25.3355C80.8422 25.2753 80.9218 25.3072 80.9218 25.4061C80.9218 25.505 81.2952 25.8048 81.7515 26.0721C82.4409 26.4762 82.7813 26.5567 83.7635 26.5477C85.9894 26.5273 87.3267 25.3111 87.6876 22.9785C88.2964 19.0453 85.9442 16.3527 82.6364 17.1964ZM92.1663 17.137C91.1691 17.2845 89.9967 18.0256 89.5938 18.7632C89.3352 19.2368 89.3449 19.2713 89.8559 19.6856C90.3532 20.0888 90.4007 20.0964 90.6111 19.8066C91.5123 18.5648 92.3226 18.19 93.5908 18.4279C94.4117 18.5818 95.0185 19.1948 95.1749 20.0277C95.3246 20.8258 95.1992 20.9257 93.8534 21.0821C91.6482 21.3383 89.8557 22.1502 89.4238 23.0882C89.3209 23.3116 89.2367 23.8383 89.2367 24.2584C89.2367 25.6974 90.3358 26.5332 92.2412 26.5433C93.3746 26.5491 94.6799 26.0965 94.9936 25.589C95.0677 25.4692 95.3018 25.6207 95.6055 25.9846C96.0413 26.5063 96.1932 26.5719 96.9302 26.5565C97.819 26.5379 98.075 26.3304 98.0796 25.6244C98.0819 25.2728 98.0115 25.2192 97.6402 25.2904C96.7572 25.4591 96.6877 25.2284 96.6309 21.9423C96.5833 19.1747 96.5453 18.8582 96.2061 18.404C95.436 17.3721 93.8785 16.8836 92.1663 17.137ZM102.911 17.1338C101.945 17.304 101.514 17.5446 101.134 18.1263L100.824 18.6004L100.736 17.9874C100.658 17.4471 100.579 17.3679 100.073 17.319L99.4976 17.2635V21.8745V26.4854H100.194H100.891L100.946 23.3316C100.999 20.3087 101.02 20.151 101.44 19.5377C101.984 18.7453 102.45 18.5243 103.579 18.5243C104.415 18.5243 104.465 18.4973 104.565 17.9978C104.623 17.7082 104.665 17.4098 104.658 17.3344C104.637 17.1037 103.696 16.9956 102.911 17.1338ZM108.149 17.1303C107.058 17.2895 106.337 17.687 105.754 18.4518C105.233 19.1352 105.278 19.4169 105.987 19.8874C106.325 20.1116 106.383 20.0806 106.729 19.4958C107.564 18.0789 110.082 17.9421 110.796 19.2746C110.921 19.5094 110.998 19.9736 110.966 20.3064C110.91 20.8951 110.882 20.915 109.935 21.0482C107.769 21.353 106.738 21.727 105.931 22.5008C105.246 23.157 105.159 23.3286 105.161 24.0226C105.165 25.002 105.448 25.5718 106.174 26.0612C107.319 26.8329 109.426 26.7391 110.571 25.8659L111.126 25.4427L111.315 25.8579C111.562 26.3996 112.548 26.7285 113.326 26.5284C113.827 26.3994 113.925 26.288 113.973 25.7894C114.026 25.2472 113.998 25.2104 113.604 25.3093C112.713 25.5329 112.616 25.2323 112.556 22.0626C112.508 19.5064 112.456 19.0673 112.141 18.5305C111.478 17.4022 109.952 16.867 108.149 17.1303ZM2.40798 17.3213C2.08953 17.6398 2.15198 18.1348 2.53677 18.3405C3.19771 18.6943 3.78099 18.1111 3.42717 17.4501C3.22142 17.0653 2.72642 17.0029 2.40798 17.3213ZM71.4419 18.5891C70.2831 19.1145 69.6698 20.5185 69.8281 22.2827C69.9364 23.4881 70.3666 24.297 71.2011 24.8638C71.7117 25.2107 71.984 25.2674 72.8765 25.2125C73.5774 25.1693 74.103 25.0276 74.4116 24.7989C76.0519 23.5828 76.0087 20.0315 74.339 18.8152C73.7301 18.3717 72.1873 18.2512 71.4419 18.5891ZM82.1602 18.6659C80.2668 19.713 80.1726 23.7643 82.0154 24.8879C83.3648 25.7105 85.2004 25.1849 85.9326 23.7661C86.6794 22.3193 86.2548 19.6522 85.1526 18.8675C84.3962 18.3287 82.9464 18.231 82.1602 18.6659ZM16.9937 20.5503C16.1928 21.2927 16.406 22.5164 17.4284 23.045C18.5146 23.6067 19.7454 22.8371 19.7454 21.5961C19.7454 20.2469 18.0262 19.5936 16.9937 20.5503ZM13.4535 20.6602C12.4754 21.4296 13.0464 22.9472 14.3142 22.9472C15.122 22.9472 15.641 22.4332 15.641 21.6332C15.641 20.9475 14.9932 20.2935 14.3142 20.2935C14.0971 20.2935 13.7099 20.4585 13.4535 20.6602ZM9.72331 20.8877C9.21752 21.3935 9.18337 21.5633 9.47563 22.1185C9.74153 22.6238 9.96922 22.7642 10.5274 22.7676C11.1236 22.7711 11.572 22.2629 11.572 21.5839C11.572 20.9794 11.35 20.7315 10.6512 20.5562C10.2788 20.4626 10.0759 20.5351 9.72331 20.8877ZM5.94623 21.0365C5.29466 21.6881 6.2093 22.8366 7.06803 22.4452C7.38046 22.303 7.50306 22.1065 7.50306 21.7479C7.50306 21.1258 7.21416 20.8242 6.61849 20.8242C6.36551 20.8242 6.06299 20.9197 5.94623 21.0365ZM2.40143 21.1564C1.98975 21.4174 2.22576 22.1443 2.74163 22.2043C3.35322 22.2752 3.70244 21.8565 3.44008 21.3663C3.23663 20.9861 2.80709 20.8994 2.40143 21.1564ZM93.3331 22.4134C91.5305 22.7954 90.9375 23.1892 90.8634 24.0536C90.7931 24.8736 91.2951 25.247 92.4675 25.247C93.5408 25.247 94.6231 24.711 94.9927 23.9962C95.2883 23.4245 95.2842 22.205 94.9863 22.1395C94.889 22.118 94.1451 22.2413 93.3331 22.4134ZM109.283 22.4069C107.681 22.7478 107.012 23.0991 106.712 23.7578C106.547 24.1217 106.573 24.2774 106.871 24.6772C107.495 25.5173 109.494 25.4471 110.453 24.5512C110.935 24.1015 110.997 23.9306 110.997 23.0531C110.997 22.5082 110.937 22.0707 110.864 22.0806C110.791 22.0905 110.08 22.2374 109.283 22.4069ZM17.4733 24.0072C16.4952 24.4019 16.21 25.8321 16.9599 26.5818C17.5678 27.1897 18.7747 27.1927 19.3431 26.5878C19.9593 25.9318 19.8947 24.9502 19.1941 24.3242C18.6326 23.8223 18.1509 23.7337 17.4733 24.0072ZM13.372 24.5949C12.2088 25.8333 14.0106 27.6367 15.2538 26.4785C15.7567 26.01 15.7737 25.0259 15.2872 24.5394C14.7945 24.0467 13.8618 24.0737 13.372 24.5949ZM9.63574 24.8325C9.21557 25.3666 9.28298 25.8729 9.83795 26.3527C10.5707 26.9864 11.572 26.5011 11.572 25.5124C11.572 24.4125 10.3137 23.9706 9.63574 24.8325ZM6.12721 24.8148C5.36825 25.3463 5.76118 26.3527 6.72765 26.3527C7.26599 26.3527 7.49651 26.061 7.5004 25.3753C7.50235 25.0098 7.38718 24.8403 7.04928 24.7119C6.49183 24.4999 6.59267 24.4886 6.12721 24.8148ZM2.26362 25.1483C2.07273 25.6458 2.28007 26.0422 2.76021 26.098C3.34544 26.1657 3.76808 25.561 3.42469 25.1472C3.15172 24.8184 2.38993 24.8191 2.26362 25.1483ZM17.4986 27.8167C16.7671 28.1974 16.5251 28.5687 16.5283 29.3056C16.5314 30.0261 16.6213 30.1933 17.2285 30.6089C18.3374 31.3678 19.71 30.6627 19.71 29.3339C19.71 28.0479 18.5643 27.2619 17.4986 27.8167ZM13.4217 28.335C13.1478 28.6087 12.9873 28.9714 12.9873 29.316C12.9873 29.9815 13.6734 30.7313 14.2823 30.7313C14.5169 30.7313 14.9185 30.5662 15.1749 30.3646C15.5358 30.0808 15.641 29.8425 15.641 29.31C15.641 28.0159 14.3207 27.4358 13.4217 28.335ZM9.79301 28.4038C9.33853 28.7718 9.24759 29.656 9.61822 30.1027C9.95807 30.5121 11.1582 30.4665 11.3889 30.0353C11.6766 29.4975 11.6042 28.8175 11.2182 28.4314C10.7772 27.9904 10.3146 27.9816 9.79301 28.4038ZM6.01186 28.7094C5.45813 29.2633 5.82097 30.2006 6.5893 30.2006C7.20178 30.2006 7.50306 29.9088 7.50306 29.316C7.50306 29.063 7.40753 28.7605 7.29076 28.6437C6.99302 28.346 6.3418 28.3794 6.01186 28.7094ZM2.40798 28.8207C2.29121 28.9374 2.19568 29.2145 2.19568 29.4365C2.19568 29.9939 3.03195 30.217 3.37321 29.7505C3.67732 29.3346 3.67219 29.2256 3.33305 28.8863C3.00063 28.5539 2.69634 28.5323 2.40798 28.8207ZM17.4733 31.6145C16.9339 31.8321 16.5256 32.4872 16.5256 33.1352C16.5256 34.3488 17.8574 35.1271 18.9594 34.557C19.5729 34.2398 19.7121 33.9601 19.7044 33.0609C19.6938 31.8257 18.6409 31.1432 17.4733 31.6145ZM13.9605 31.8147C13.2908 32.0015 12.9873 32.4127 12.9873 33.1338C12.9873 34.35 14.3878 34.9951 15.2784 34.1891C15.6394 33.8623 15.7603 33.0168 15.5312 32.4199C15.3514 31.9516 14.5615 31.6472 13.9605 31.8147ZM9.72703 32.2476C9.28581 32.6888 9.30491 33.696 9.76117 34.0484C10.5184 34.6333 11.572 34.075 11.572 33.0888C11.572 32.1296 10.386 31.5888 9.72703 32.2476ZM6.02672 32.4702C5.63203 32.9063 5.65786 33.4382 6.09306 33.8321C6.63318 34.3209 7.3962 34.0097 7.46838 33.2712C7.56303 32.3046 6.64043 31.7919 6.02672 32.4702ZM17.0427 35.8481C16.1415 36.7493 16.4501 38.0311 17.6846 38.5146C18.6838 38.9061 19.71 38.0836 19.71 36.8914C19.71 35.416 18.1033 34.7876 17.0427 35.8481ZM13.7507 35.6861C12.9127 36.0238 12.7354 37.2182 13.4217 37.9042C14.2887 38.7715 15.641 38.1738 15.641 36.9232C15.641 36.3973 15.5345 36.1574 15.1749 35.8747C14.6749 35.4814 14.3618 35.4398 13.7507 35.6861ZM9.61822 36.1365C8.96595 36.9225 9.71677 38.3104 10.6654 38.0723C11.5123 37.8598 11.8809 36.7267 11.2941 36.1397C10.9368 35.7825 9.91367 35.7806 9.61822 36.1365ZM6.01186 36.3166C5.45105 36.8776 5.87051 37.8078 6.68413 37.8078C7.21434 37.8078 7.50306 37.4856 7.50306 36.8941C7.50306 36.1257 6.56577 35.7629 6.01186 36.3166ZM17.0103 39.6725C15.6693 40.9158 17.3123 43.0161 18.9594 42.1643C19.5758 41.8457 19.71 41.5723 19.71 40.6368C19.71 39.3186 18.0366 38.721 17.0103 39.6725ZM13.4535 39.7668C12.6896 40.3676 12.8308 41.5184 13.7253 41.981C14.6634 42.4661 15.641 41.8729 15.641 40.8187C15.641 39.5863 14.4258 39.002 13.4535 39.7668Z" fill="black"></path><path fill-rule="evenodd" clip-rule="evenodd" d="M20.7568 1.14851C20.2312 1.61804 20.1523 1.79707 20.1523 2.51941C20.1523 3.26226 20.224 3.41229 20.8272 3.93365C21.405 4.43325 21.456 4.53197 21.1811 4.62095C20.7639 4.75558 20.0639 5.7907 20.0639 6.27261C20.0639 6.93656 20.3952 7.54726 20.9328 7.8742L21.4567 8.19282L20.8564 8.67172C19.7884 9.52408 19.8657 11.1174 21.0089 11.8126L21.5398 12.1355L21.0839 12.3432C19.8809 12.8913 19.7748 14.5762 20.8853 15.4915C21.4882 15.9885 21.4991 16.0173 21.1317 16.1339C20.6707 16.2804 20.0654 17.2145 20.0646 17.7813C20.0635 18.3679 20.5031 19.1313 21.0471 19.4878L21.5177 19.7962L20.9633 20.1334C19.8629 20.8024 19.8109 22.2353 20.8564 23.0696L21.4565 23.5483L20.8044 24.1121C20.2317 24.6073 20.1523 24.7734 20.1523 25.4779C20.1523 26.0833 20.2574 26.392 20.5811 26.7364C20.8171 26.9877 21.1338 27.1931 21.2849 27.1931C21.4507 27.1931 21.3005 27.4068 20.9068 27.7312C19.8086 28.6367 19.8385 30.2075 20.9673 30.8939L21.4567 31.1915L20.8564 31.6704C19.8004 32.513 19.8631 34.1505 20.9734 34.7248C21.5924 35.0448 21.5998 35.117 21.036 35.3314C20.7922 35.4241 20.4631 35.7715 20.3048 36.1034C19.8873 36.9791 20.0968 37.8402 20.8853 38.4902C21.4882 38.9871 21.4991 39.0159 21.1317 39.1325C20.657 39.2833 20.0654 40.2188 20.0646 40.8201C20.0639 41.282 20.4617 41.9806 20.9403 42.3576C21.7389 42.9869 26.6064 42.3614 29.4471 41.2643C32.8679 39.9433 34.2751 38.9993 37.2293 36.0442C39.8434 33.4294 41.7984 29.6835 42.6338 25.6893C43.005 23.9143 43.0551 19.9842 42.7294 18.1705C42.0084 14.1544 39.826 9.79547 37.2314 7.1899C33.2074 3.14851 28.6036 1.03157 23.1451 0.712599L21.3613 0.608398L20.7568 1.14851ZM17.4684 1.09526C16.0998 1.68013 16.2158 3.53577 17.6506 4.00919C18.7379 4.36814 19.7454 3.64316 19.7454 2.50189C19.7454 1.34152 18.5787 0.620782 17.4684 1.09526ZM13.372 1.59628C12.5553 2.4658 13.1666 3.84059 14.3697 3.84059C15.1252 3.84059 15.641 3.30207 15.641 2.51375C15.641 1.28527 14.2084 0.706054 13.372 1.59628ZM17.0427 5.24227C15.9821 6.30286 16.6105 7.90958 18.086 7.90958C19.1416 7.90958 19.71 7.37584 19.71 6.38459C19.71 4.83466 18.1279 4.15709 17.0427 5.24227ZM13.7507 5.07633C12.9199 5.41936 12.7186 6.711 13.3967 7.34806C14.2786 8.17637 15.641 7.61626 15.641 6.42546C15.641 5.38061 14.6783 4.69349 13.7507 5.07633ZM9.87369 5.39123C9.41672 5.6964 9.24866 6.30834 9.48572 6.80317C10.0191 7.91595 11.572 7.63767 11.572 6.42918C11.572 6.08455 11.4383 5.72046 11.2485 5.54868C10.9132 5.2451 10.2127 5.16496 9.87369 5.39123ZM6.02672 5.75638C5.44167 6.40264 5.76896 7.20193 6.6185 7.20193C7.21133 7.20193 7.50306 6.90065 7.50306 6.28818C7.50306 5.49366 6.56896 5.15717 6.02672 5.75638ZM17.6041 8.63722C16.4444 9.08906 16.1651 10.4069 17.0427 11.2845C17.7185 11.9603 18.6484 11.9948 19.2757 11.3673C19.8684 10.7749 19.8875 9.54761 19.312 9.02519C18.8125 8.57176 18.1553 8.42245 17.6041 8.63722ZM13.372 9.20352C12.8446 9.76504 12.8663 10.6353 13.4217 11.1904C13.9522 11.7212 14.5566 11.7445 15.1749 11.258C15.7697 10.7902 15.8282 9.68897 15.2872 9.14797C14.7945 8.65527 13.8618 8.68233 13.372 9.20352ZM9.79302 9.29728C9.33853 9.66526 9.24759 10.5495 9.61822 10.9962C9.91367 11.3521 10.9368 11.3502 11.2941 10.993C11.7169 10.57 11.6515 9.57751 11.1788 9.24651C10.6627 8.8849 10.2852 8.8987 9.79302 9.29728ZM5.94623 9.53718C5.42062 10.0628 5.90943 11.094 6.68413 11.094C7.20638 11.094 7.50306 10.7736 7.50306 10.2094C7.50306 9.95646 7.40753 9.65394 7.29076 9.53718C7.174 9.42041 6.87148 9.32488 6.6185 9.32488C6.36551 9.32488 6.06299 9.42041 5.94623 9.53718ZM17.4733 12.5079C16.4175 12.9339 16.204 14.3667 17.0751 15.1805C18.167 16.2006 19.6915 15.5577 19.7044 14.0718C19.7122 13.181 19.5729 12.8929 18.9896 12.5912C18.4317 12.3027 18.0357 12.2809 17.4733 12.5079ZM13.7465 12.778C13.1646 13.0229 12.9873 13.3351 12.9873 14.116C12.9873 14.8543 13.545 15.3399 14.3926 15.3399C15.2338 15.3399 15.641 14.8745 15.641 13.9126C15.641 12.887 14.7528 12.355 13.7465 12.778ZM9.76117 13.0843C9.4866 13.2962 9.38488 13.6714 9.42875 14.3101C9.48324 15.1036 10.72 15.4574 11.2793 14.8394C11.6679 14.4101 11.6517 13.5207 11.2485 13.1559C10.8649 12.8088 10.1617 12.775 9.76117 13.0843ZM6.02672 13.3636C5.64265 13.788 5.65521 14.3292 6.05751 14.6933C6.47803 15.0738 6.84689 15.0639 7.21027 14.6625C7.61168 14.219 7.58532 13.4503 7.16091 13.2232C6.66626 12.9585 6.35896 12.9965 6.02672 13.3636ZM2.50528 13.408C2.33491 13.5073 2.19568 13.7818 2.19568 14.0185C2.19568 14.6011 3.02151 14.8401 3.37321 14.3591C3.67732 13.9432 3.67219 13.8342 3.33305 13.4949C3.01072 13.1727 2.92474 13.1637 2.50528 13.408ZM17.07 16.6825C16.328 17.3068 16.3174 18.1664 17.0427 18.8918C18.1168 19.9658 19.71 19.3236 19.71 17.8167C19.71 16.3501 18.2238 15.7116 17.07 16.6825ZM13.698 16.6289C12.7827 17.0921 12.7772 18.492 13.6888 18.9634C14.3759 19.3188 14.6188 19.3028 15.1749 18.8652C15.5345 18.5825 15.641 18.3426 15.641 17.8167C15.641 17.2907 15.5345 17.0508 15.1749 16.7681C14.6394 16.3467 14.3158 16.3163 13.698 16.6289ZM9.61822 17.03C9.27784 17.44 9.33534 18.3575 9.71871 18.6379C10.1819 18.9763 10.9339 18.9364 11.2793 18.5546C11.649 18.1459 11.6564 17.3956 11.2941 17.0331C10.9368 16.676 9.91367 16.674 9.61822 17.03ZM5.902 17.3024C5.43955 18.1668 6.26838 18.9956 7.13278 18.5332C7.54746 18.3112 7.64052 17.4942 7.29076 17.1444C6.94101 16.7947 6.12402 16.8877 5.902 17.3024ZM2.40798 17.3213C2.08953 17.6398 2.15198 18.1348 2.53677 18.3405C3.19771 18.6943 3.78099 18.1111 3.42717 17.4501C3.22142 17.0653 2.72642 17.0029 2.40798 17.3213ZM16.9937 20.5503C16.1928 21.2927 16.406 22.5164 17.4284 23.045C18.5146 23.6067 19.7454 22.8371 19.7454 21.5961C19.7454 20.2469 18.0262 19.5936 16.9937 20.5503ZM13.4535 20.6602C12.4754 21.4296 13.0464 22.9472 14.3142 22.9472C15.122 22.9472 15.641 22.4332 15.641 21.6332C15.641 20.9475 14.9932 20.2935 14.3142 20.2935C14.0971 20.2935 13.7099 20.4585 13.4535 20.6602ZM9.72331 20.8877C9.21752 21.3935 9.18337 21.5633 9.47563 22.1185C9.74153 22.6238 9.96922 22.7642 10.5274 22.7676C11.1236 22.7711 11.572 22.2629 11.572 21.5839C11.572 20.9794 11.35 20.7315 10.6512 20.5562C10.2788 20.4626 10.0759 20.5351 9.72331 20.8877ZM5.94623 21.0365C5.29466 21.6881 6.2093 22.8366 7.06803 22.4452C7.38046 22.303 7.50306 22.1065 7.50306 21.7479C7.50306 21.1258 7.21416 20.8242 6.6185 20.8242C6.36551 20.8242 6.06299 20.9197 5.94623 21.0365ZM2.40143 21.1564C1.98975 21.4174 2.22576 22.1443 2.74163 22.2043C3.35322 22.2752 3.70244 21.8565 3.44008 21.3663C3.23663 20.9861 2.80709 20.8994 2.40143 21.1564ZM17.4733 24.0072C16.4952 24.4019 16.21 25.8321 16.9599 26.5818C17.5678 27.1897 18.7747 27.1927 19.3431 26.5878C19.9593 25.9318 19.8947 24.9502 19.1942 24.3242C18.6326 23.8223 18.1509 23.7337 17.4733 24.0072ZM13.372 24.5949C12.2088 25.8333 14.0106 27.6367 15.2538 26.4785C15.7567 26.01 15.7737 25.0259 15.2872 24.5394C14.7945 24.0467 13.8618 24.0737 13.372 24.5949ZM9.63574 24.8325C9.21557 25.3666 9.28298 25.8729 9.83795 26.3527C10.5707 26.9864 11.572 26.5011 11.572 25.5124C11.572 24.4125 10.3137 23.9706 9.63574 24.8325ZM6.12721 24.8148C5.36825 25.3463 5.76118 26.3527 6.72765 26.3527C7.266 26.3527 7.49651 26.061 7.5004 25.3753C7.50235 25.0098 7.38718 24.8403 7.04928 24.7119C6.49183 24.4999 6.59267 24.4886 6.12721 24.8148ZM2.26362 25.1483C2.07273 25.6458 2.28007 26.0422 2.76021 26.098C3.34544 26.1657 3.76808 25.561 3.42469 25.1472C3.15172 24.8184 2.38993 24.8191 2.26362 25.1483ZM17.4986 27.8167C16.7671 28.1974 16.5251 28.5687 16.5283 29.3056C16.5314 30.0261 16.6213 30.1933 17.2285 30.6089C18.3374 31.3678 19.71 30.6627 19.71 29.3339C19.71 28.0479 18.5643 27.2619 17.4986 27.8167ZM13.4217 28.335C13.1478 28.6087 12.9873 28.9714 12.9873 29.316C12.9873 29.9815 13.6734 30.7313 14.2824 30.7313C14.5169 30.7313 14.9185 30.5662 15.1749 30.3646C15.5358 30.0808 15.641 29.8425 15.641 29.31C15.641 28.0159 14.3207 27.4358 13.4217 28.335ZM9.79302 28.4038C9.33853 28.7718 9.24759 29.656 9.61822 30.1027C9.95807 30.5121 11.1582 30.4665 11.3889 30.0353C11.6766 29.4975 11.6042 28.8175 11.2182 28.4314C10.7772 27.9904 10.3146 27.9816 9.79302 28.4038ZM6.01186 28.7094C5.45813 29.2633 5.82097 30.2006 6.5893 30.2006C7.20178 30.2006 7.50306 29.9088 7.50306 29.316C7.50306 29.063 7.40753 28.7605 7.29076 28.6437C6.99302 28.346 6.3418 28.3794 6.01186 28.7094ZM2.40798 28.8207C2.29121 28.9374 2.19568 29.2145 2.19568 29.4365C2.19568 29.9939 3.03195 30.217 3.37321 29.7505C3.67732 29.3346 3.67219 29.2256 3.33305 28.8863C3.00063 28.5539 2.69634 28.5323 2.40798 28.8207ZM17.4733 31.6145C16.9339 31.8321 16.5256 32.4872 16.5256 33.1352C16.5256 34.3488 17.8574 35.1271 18.9594 34.557C19.5729 34.2398 19.7122 33.9601 19.7044 33.0609C19.6938 31.8257 18.6409 31.1432 17.4733 31.6145ZM13.9605 31.8147C13.2908 32.0015 12.9873 32.4127 12.9873 33.1338C12.9873 34.35 14.3878 34.9951 15.2784 34.1891C15.6394 33.8623 15.7603 33.0168 15.5312 32.4199C15.3514 31.9516 14.5615 31.6472 13.9605 31.8147ZM9.72703 32.2476C9.28581 32.6888 9.30491 33.696 9.76117 34.0484C10.5184 34.6333 11.572 34.075 11.572 33.0888C11.572 32.1296 10.386 31.5888 9.72703 32.2476ZM6.02672 32.4702C5.63203 32.9063 5.65786 33.4382 6.09306 33.8321C6.63318 34.3209 7.3962 34.0097 7.46838 33.2712C7.56303 32.3046 6.64043 31.7919 6.02672 32.4702ZM17.0427 35.8481C16.1415 36.7493 16.4501 38.0311 17.6846 38.5146C18.6838 38.9061 19.71 38.0836 19.71 36.8914C19.71 35.416 18.1033 34.7876 17.0427 35.8481ZM13.7507 35.6861C12.9127 36.0238 12.7354 37.2182 13.4217 37.9042C14.2887 38.7715 15.641 38.1738 15.641 36.9232C15.641 36.3973 15.5345 36.1574 15.1749 35.8747C14.6749 35.4814 14.3618 35.4398 13.7507 35.6861ZM9.61822 36.1365C8.96595 36.9225 9.71677 38.3104 10.6654 38.0723C11.5123 37.8598 11.8809 36.7267 11.2941 36.1397C10.9368 35.7825 9.91367 35.7806 9.61822 36.1365ZM6.01186 36.3166C5.45105 36.8776 5.87051 37.8078 6.68413 37.8078C7.21434 37.8078 7.50306 37.4856 7.50306 36.8941C7.50306 36.1257 6.56578 35.7629 6.01186 36.3166ZM17.0103 39.6725C15.6693 40.9158 17.3123 43.0161 18.9594 42.1643C19.5758 41.8457 19.71 41.5723 19.71 40.6368C19.71 39.3186 18.0366 38.721 17.0103 39.6725ZM13.4535 39.7668C12.6896 40.3676 12.8308 41.5184 13.7253 41.981C14.6634 42.4661 15.641 41.8729 15.641 40.8187C15.641 39.5863 14.4258 39.002 13.4535 39.7668Z" fill="#6F41E1"></path></svg>